<svg xmlns="http://www.w3.org/2000/svg" xmlns:xlink="http://www.w3.org/1999/xlink" width="1000" zoomAndPan="magnify" viewBox="0 0 750 262.499992" height="350" preserveAspectRatio="xMidYMid meet" version="1.0"><path fill="#5884ee" d="M 75.921875 61.1875 C 64.199219 61.1875 52.769531 61.773438 39.730469 61.773438 C 26.6875 61.773438 19.800781 61.40625 10.351562 61.40625 C 0.898438 61.40625 5.222656 64.042969 5.222656 67.632812 C 5.222656 71.222656 6.761719 73.714844 10.351562 73.714844 C 13.941406 73.714844 12.839844 73.128906 14.308594 73.128906 C 15.773438 73.128906 15.257812 73.128906 15.625 73.347656 C 19.140625 74.445312 19.433594 79.867188 19.800781 85.289062 C 20.386719 94.738281 20.753906 105.949219 20.753906 117.160156 C 20.753906 128.367188 20.753906 122.507812 20.753906 125.21875 C 20.609375 137.234375 20.167969 148.660156 19.875 157.234375 C 19.507812 166.171875 18.554688 169.394531 13.792969 169.394531 C 9.03125 169.394531 11.15625 169.027344 10.351562 169.027344 C 7.492188 169.027344 5.222656 170.714844 5.222656 175.109375 C 5.222656 179.503906 7.492188 180.972656 10.351562 180.972656 C 15.113281 180.972656 30.425781 180.238281 41.046875 180.238281 C 51.671875 180.238281 43.683594 180.238281 45.078125 180.238281 C 45.222656 180.238281 45.296875 180.238281 45.445312 180.238281 C 45.738281 180.238281 46.101562 180.238281 46.394531 180.238281 C 47.789062 180.238281 49.253906 180.238281 50.71875 180.3125 C 60.976562 180.605469 71.890625 181.117188 76.433594 181.117188 C 116.65625 181.117188 132.773438 163.902344 132.773438 131.445312 C 132.773438 98.988281 116.289062 61.257812 75.921875 61.257812 Z M 50.71875 169.25 C 46.394531 169.25 45.371094 166.390625 45.003906 158.550781 C 45.003906 158.257812 44.417969 142.875 44.273438 134.007812 C 47.933594 133.351562 53.503906 131.519531 58.484375 126.609375 C 59.511719 125.65625 60.460938 124.484375 61.414062 123.238281 C 69.621094 112.324219 68.15625 99.429688 67.9375 97.597656 L 64.933594 74.078125 C 66.542969 73.199219 68.523438 72.90625 70.867188 72.90625 C 85.664062 72.90625 90.941406 83.898438 90.941406 132.472656 C 90.941406 181.042969 67.570312 169.25 50.71875 169.25 Z M 50.71875 169.25 " fill-opacity="1" fill-rule="nonzero"/><path fill="#6080ed" d="M 191.238281 80.601562 C 194.09375 80.601562 195.339844 82.726562 195.339844 85.582031 C 195.339844 88.441406 194.167969 90.417969 191.238281 90.417969 C 188.308594 90.417969 188.964844 89.976562 187.648438 89.976562 C 183.910156 89.976562 183.542969 94.667969 183.25 99.503906 C 182.8125 106.460938 182.519531 114.59375 182.519531 122.726562 C 182.519531 135.402344 182.957031 147.855469 183.25 156.792969 C 183.542969 163.902344 184.277344 166.464844 188.085938 166.464844 C 191.898438 166.464844 190.210938 166.171875 191.238281 166.171875 C 194.09375 166.171875 195.339844 168.441406 195.339844 170.859375 C 195.339844 173.277344 194.167969 175.695312 191.238281 175.695312 C 188.308594 175.695312 176.953125 175.257812 169.40625 175.257812 C 161.859375 175.257812 148.597656 175.695312 144.421875 175.695312 C 140.246094 175.695312 140.320312 173.570312 140.320312 170.859375 C 140.320312 168.148438 141.492188 166.171875 144.421875 166.171875 C 147.351562 166.171875 146.695312 166.464844 147.132812 166.464844 C 150.871094 166.464844 151.675781 163.902344 151.96875 156.792969 C 152.261719 147.929688 152.699219 135.402344 152.699219 122.875 C 152.699219 110.34375 152.40625 106.609375 151.96875 99.648438 C 151.675781 94.8125 151.382812 89.976562 147.574219 89.976562 C 143.761719 89.976562 145.15625 90.417969 144.421875 90.417969 C 141.566406 90.417969 140.320312 87.707031 140.320312 85.582031 C 140.320312 83.457031 141.492188 80.601562 144.421875 80.601562 C 152.113281 80.601562 159.808594 81.039062 168.378906 81.039062 C 176.953125 81.039062 183.910156 80.601562 191.3125 80.601562 Z M 191.238281 80.601562 " fill-opacity="1" fill-rule="nonzero"/><path fill="#667eee" d="M 248.96875 177.820312 C 212.628906 177.820312 199.515625 163.535156 199.515625 134.300781 C 199.515625 105.070312 212.628906 78.402344 248.96875 78.402344 C 285.308594 78.402344 298.566406 100.820312 298.566406 134.300781 C 298.566406 167.785156 285.453125 177.820312 248.96875 177.820312 Z M 248.96875 87.414062 C 235.707031 87.414062 231.972656 102.214844 232.265625 133.496094 C 232.410156 154.011719 235.707031 165.585938 248.96875 165.585938 C 262.230469 165.585938 265.671875 154.011719 265.820312 133.496094 C 266.113281 102.140625 262.375 87.414062 248.96875 87.414062 Z M 248.96875 87.414062 " fill-opacity="1" fill-rule="nonzero"/><path fill="#7376ed" d="M 328.972656 103.238281 C 327.582031 103.238281 326.113281 104.265625 326.113281 106.976562 C 326.113281 163.167969 346.773438 163.609375 346.773438 170.566406 C 346.773438 177.527344 345.238281 175.550781 342.378906 175.550781 C 337.542969 175.550781 332.121094 175.109375 327.289062 175.109375 C 319.59375 175.109375 313.734375 175.550781 310.4375 175.550781 C 307.140625 175.550781 306.699219 173.71875 306.699219 171.007812 C 306.699219 164.558594 317.105469 162.140625 317.105469 108.585938 C 317.105469 55.03125 316.226562 89.613281 311.976562 89.613281 C 307.726562 89.613281 308.972656 90.050781 307.726562 90.050781 C 305.160156 90.050781 303.84375 87.925781 303.84375 85.214844 C 303.84375 82.503906 305.234375 80.527344 307.726562 80.527344 C 315.125 80.527344 323.40625 81.113281 331.535156 81.113281 C 339.667969 81.113281 346.335938 80.527344 352.636719 80.527344 C 358.9375 80.527344 358.058594 83.53125 358.9375 88.367188 C 362.820312 108.878906 372.929688 124.703125 382.453125 142.949219 C 383.332031 144.777344 385.3125 145.21875 386.703125 145.21875 C 388.097656 145.21875 389.707031 144.046875 389.707031 141.480469 C 389.707031 96.570312 371.464844 93.566406 371.464844 85.582031 C 371.464844 77.597656 373.589844 80.601562 377.03125 80.601562 C 381.722656 80.894531 386.191406 81.039062 390.292969 81.039062 C 394.394531 81.039062 400.257812 80.894531 404.285156 80.601562 C 407.730469 80.601562 409.5625 82.871094 409.5625 85.730469 C 409.5625 91.738281 397.839844 97.816406 397.839844 131.8125 C 397.839844 165.804688 400.109375 163.316406 400.109375 168.589844 C 400.109375 173.863281 398.9375 175.550781 394.542969 175.550781 C 390.148438 175.550781 387.144531 174.964844 383.554688 174.964844 C 379.964844 174.964844 375.128906 175.550781 371.464844 175.550781 C 367.800781 175.550781 365.457031 173.71875 363.480469 169.980469 C 349.777344 143.460938 337.691406 112.542969 332.121094 104.703125 C 331.390625 103.679688 330.144531 103.164062 328.972656 103.164062 Z M 328.972656 103.238281 " fill-opacity="1" fill-rule="nonzero"/><path fill="#7f6eed" d="M 462.75 80.601562 C 465.609375 80.601562 466.855469 82.726562 466.855469 85.582031 C 466.855469 88.441406 465.679688 90.417969 462.75 90.417969 C 459.820312 90.417969 460.480469 89.976562 459.160156 89.976562 C 455.425781 89.976562 455.058594 94.667969 454.765625 99.503906 C 454.324219 106.460938 454.03125 114.59375 454.03125 122.726562 C 454.03125 135.402344 454.472656 147.855469 454.765625 156.792969 C 455.058594 163.902344 455.792969 166.464844 459.601562 166.464844 C 463.410156 166.464844 461.726562 166.171875 462.75 166.171875 C 465.609375 166.171875 466.855469 168.441406 466.855469 170.859375 C 466.855469 173.277344 465.679688 175.695312 462.75 175.695312 C 459.820312 175.695312 448.464844 175.257812 440.917969 175.257812 C 433.371094 175.257812 420.113281 175.695312 415.9375 175.695312 C 411.761719 175.695312 411.832031 173.570312 411.832031 170.859375 C 411.832031 168.148438 413.003906 166.171875 415.9375 166.171875 C 418.867188 166.171875 418.207031 166.464844 418.648438 166.464844 C 422.382812 166.464844 423.1875 163.902344 423.480469 156.792969 C 423.773438 147.929688 424.214844 135.402344 424.214844 122.875 C 424.214844 110.34375 423.921875 106.609375 423.480469 99.648438 C 423.1875 94.8125 422.894531 89.976562 419.085938 89.976562 C 415.277344 89.976562 416.667969 90.417969 415.9375 90.417969 C 413.078125 90.417969 411.832031 87.707031 411.832031 85.582031 C 411.832031 83.457031 413.003906 80.601562 415.9375 80.601562 C 423.628906 80.601562 431.320312 81.039062 439.894531 81.039062 C 448.464844 81.039062 455.425781 80.601562 462.824219 80.601562 Z M 475.570312 58.476562 C 475.570312 52.90625 471.835938 48.949219 465.316406 48.949219 C 450.734375 48.949219 442.089844 64.484375 431.539062 64.484375 C 420.992188 64.484375 423.554688 62.503906 420.992188 62.503906 C 418.425781 62.503906 416.449219 64.191406 416.449219 67.191406 C 416.449219 70.195312 419.304688 73.054688 429.710938 73.054688 C 460.332031 73.054688 475.5 70.195312 475.5 58.476562 Z M 475.570312 58.476562 " fill-opacity="1" fill-rule="nonzero"/><path fill="#8b67ec" d="M 477.988281 177.089844 C 475.277344 177.089844 473.007812 175.550781 473.007812 172.839844 C 473.007812 170.128906 473.886719 160.457031 473.886719 154.597656 C 473.886719 148.734375 473.007812 145.070312 473.007812 142.507812 C 473.007812 139.945312 474.179688 136.941406 478.429688 136.941406 C 489.566406 136.941406 500.847656 167.199219 522.09375 167.199219 C 543.339844 167.199219 533.375 164.046875 533.375 156.792969 C 533.375 149.542969 529.933594 146.097656 509.710938 141.261719 C 483.339844 134.816406 474.621094 124.558594 474.621094 107.488281 C 474.621094 90.417969 485.316406 78.257812 510.003906 78.257812 C 534.695312 78.257812 534.402344 87.925781 539.824219 87.925781 C 545.246094 87.925781 543.558594 87.046875 543.558594 85.363281 C 543.558594 83.675781 543.265625 83.382812 543.265625 82.359375 C 543.265625 79.5 545.246094 77.964844 547.664062 77.964844 C 550.082031 77.964844 552.207031 79.355469 552.207031 83.382812 C 552.207031 87.414062 551.765625 91.664062 551.765625 97.230469 C 551.765625 102.800781 552.058594 106.753906 552.058594 108.808594 C 552.058594 112.398438 550.375 114.667969 547.222656 114.667969 C 533.816406 114.667969 524.804688 87.851562 508.320312 87.851562 C 491.835938 87.851562 496.453125 91.441406 496.453125 97.671875 C 496.453125 103.898438 499.75 107.78125 518.136719 112.910156 C 545.683594 120.601562 556.089844 129.320312 556.089844 148.441406 C 556.089844 167.5625 540.996094 177.675781 522.167969 177.675781 C 503.339844 177.675781 493.816406 166.390625 486.636719 166.390625 C 479.457031 166.390625 482.09375 167.785156 482.09375 169.835938 C 482.09375 171.886719 482.386719 171.8125 482.386719 172.691406 C 482.386719 175.402344 480.40625 176.941406 477.84375 176.941406 Z M 477.988281 177.089844 " fill-opacity="1" fill-rule="nonzero"/><path fill="#8d64ec" d="M 613.160156 80.601562 C 616.019531 80.601562 617.261719 82.726562 617.261719 85.582031 C 617.261719 88.441406 616.089844 90.417969 613.160156 90.417969 C 610.230469 90.417969 610.890625 89.976562 609.570312 89.976562 C 605.835938 89.976562 605.46875 94.667969 605.175781 99.503906 C 604.734375 106.460938 604.441406 114.59375 604.441406 122.726562 C 604.441406 135.402344 604.882812 147.855469 605.175781 156.792969 C 605.46875 163.902344 606.199219 166.464844 610.011719 166.464844 C 613.820312 166.464844 612.132812 166.171875 613.160156 166.171875 C 616.019531 166.171875 617.261719 168.441406 617.261719 170.859375 C 617.261719 173.277344 616.089844 175.695312 613.160156 175.695312 C 610.230469 175.695312 598.875 175.257812 591.328125 175.257812 C 583.78125 175.257812 570.519531 175.695312 566.34375 175.695312 C 562.167969 175.695312 562.242188 173.570312 562.242188 170.859375 C 562.242188 168.148438 563.414062 166.171875 566.34375 166.171875 C 569.277344 166.171875 568.617188 166.464844 569.054688 166.464844 C 572.792969 166.464844 573.597656 163.902344 573.890625 156.792969 C 574.183594 147.929688 574.625 135.402344 574.625 122.875 C 574.625 110.34375 574.332031 106.609375 573.890625 99.648438 C 573.597656 94.8125 573.304688 89.976562 569.496094 89.976562 C 565.6875 89.976562 567.078125 90.417969 566.34375 90.417969 C 563.488281 90.417969 562.242188 87.707031 562.242188 85.582031 C 562.242188 83.457031 563.414062 80.601562 566.34375 80.601562 C 574.039062 80.601562 581.730469 81.039062 590.300781 81.039062 C 598.875 81.039062 605.835938 80.601562 613.234375 80.601562 Z M 613.160156 80.601562 " fill-opacity="1" fill-rule="nonzero"/><path fill="#9361ec" d="M 670.890625 177.820312 C 634.554688 177.820312 621.4375 163.535156 621.4375 134.300781 C 621.4375 105.070312 634.554688 78.402344 670.890625 78.402344 C 707.230469 78.402344 720.492188 100.820312 720.492188 134.300781 C 720.492188 167.785156 707.375 177.820312 670.890625 177.820312 Z M 670.890625 87.414062 C 657.632812 87.414062 653.894531 102.214844 654.1875 133.496094 C 654.335938 154.011719 657.632812 165.585938 670.890625 165.585938 C 684.152344 165.585938 687.597656 154.011719 687.742188 133.496094 C 688.035156 102.140625 684.300781 87.414062 670.890625 87.414062 Z M 670.890625 87.414062 " fill-opacity="1" fill-rule="nonzero"/></svg>